<mxfile host="app.diagrams.net" modified="2023-06-18T19:01:28.855Z" agent="Mozilla/5.0 (Windows NT 10.0; Win64; x64) AppleWebKit/537.36 (KHTML, like Gecko) Chrome/114.0.0.0 Safari/537.36" etag="K7ilaiFIbD0D25rOVB9A" version="21.3.7" type="device">
  <diagram id="J2dFhCvIpCpw9NCEWn2E" name="Page-1">
    <mxGraphModel dx="2261" dy="1969" grid="1" gridSize="10" guides="1" tooltips="1" connect="1" arrows="1" fold="1" page="1" pageScale="1" pageWidth="827" pageHeight="1169" math="0" shadow="0">
      <root>
        <mxCell id="0" />
        <mxCell id="1" parent="0" />
        <mxCell id="AbkL1HbmutMjZFaHs2S1-50" value="" style="endArrow=none;html=1;rounded=0;entryX=0;entryY=0;entryDx=70;entryDy=65;shape=link;entryPerimeter=0;" parent="1" target="AbkL1HbmutMjZFaHs2S1-49" edge="1">
          <mxGeometry width="50" height="50" relative="1" as="geometry">
            <mxPoint x="730" y="-110" as="sourcePoint" />
            <mxPoint x="670" y="-130" as="targetPoint" />
          </mxGeometry>
        </mxCell>
        <mxCell id="AbkL1HbmutMjZFaHs2S1-42" value="" style="shape=cube;whiteSpace=wrap;html=1;boundedLbl=1;backgroundOutline=1;darkOpacity=0.05;darkOpacity2=0.1;" parent="1" vertex="1">
          <mxGeometry x="-260" y="-70" width="1430" height="500" as="geometry" />
        </mxCell>
        <mxCell id="7CdhdkO9A19Rfal1zVye-105" value="&lt;h1&gt;&lt;br&gt;&lt;/h1&gt;" style="rounded=0;whiteSpace=wrap;html=1;fontSize=68;strokeWidth=3;fillColor=#f8cecc;align=left;strokeColor=#b85450;labelBackgroundColor=none;" parent="1" vertex="1">
          <mxGeometry x="990" y="70" width="170" height="301.36" as="geometry" />
        </mxCell>
        <mxCell id="7CdhdkO9A19Rfal1zVye-103" value="&lt;h1&gt;&lt;br&gt;&lt;/h1&gt;" style="rounded=0;whiteSpace=wrap;html=1;fontSize=68;strokeWidth=3;fillColor=#d5e8d4;align=left;strokeColor=#82b366;labelBackgroundColor=none;" parent="1" vertex="1">
          <mxGeometry x="640" y="-40" width="270" height="410" as="geometry" />
        </mxCell>
        <mxCell id="7CdhdkO9A19Rfal1zVye-100" value="&lt;h1&gt;&lt;br&gt;&lt;/h1&gt;" style="rounded=0;whiteSpace=wrap;html=1;fontSize=68;strokeWidth=3;fillColor=#dae8fc;align=left;strokeColor=#6c8ebf;labelBackgroundColor=none;" parent="1" vertex="1">
          <mxGeometry x="-220" y="50" width="675" height="370" as="geometry" />
        </mxCell>
        <mxCell id="7CdhdkO9A19Rfal1zVye-1" value="&lt;font style=&quot;font-size: 70px&quot;&gt;M&lt;/font&gt;" style="ellipse;whiteSpace=wrap;html=1;aspect=fixed;labelBackgroundColor=none;" parent="1" vertex="1">
          <mxGeometry x="1180" y="200" width="120.75" height="120.75" as="geometry" />
        </mxCell>
        <mxCell id="7CdhdkO9A19Rfal1zVye-2" value="Capteurs à &lt;br&gt;effet Hall&amp;nbsp;et encodeurs" style="rounded=0;whiteSpace=wrap;html=1;fontSize=13;labelBackgroundColor=none;" parent="1" vertex="1">
          <mxGeometry x="1200.98" y="331.36" width="81" height="48.64" as="geometry" />
        </mxCell>
        <mxCell id="7CdhdkO9A19Rfal1zVye-3" value="Etats capteurs Hall et encodeurs" style="endArrow=none;html=1;rounded=0;fontSize=13;entryX=0;entryY=0.5;entryDx=0;entryDy=0;exitX=0.5;exitY=1;exitDx=0;exitDy=0;edgeStyle=orthogonalEdgeStyle;startArrow=classic;startFill=1;strokeWidth=3;labelBackgroundColor=none;" parent="1" source="7CdhdkO9A19Rfal1zVye-5" target="7CdhdkO9A19Rfal1zVye-2" edge="1">
          <mxGeometry x="0.2987" y="10" width="50" height="50" relative="1" as="geometry">
            <mxPoint x="120" y="460" as="sourcePoint" />
            <mxPoint x="580" y="440" as="targetPoint" />
            <mxPoint as="offset" />
            <Array as="points">
              <mxPoint x="-80" y="410" />
              <mxPoint x="1180" y="410" />
              <mxPoint x="1180" y="351" />
            </Array>
          </mxGeometry>
        </mxCell>
        <mxCell id="7CdhdkO9A19Rfal1zVye-9" value="Position &lt;br&gt;mesurée" style="edgeStyle=orthogonalEdgeStyle;rounded=0;orthogonalLoop=1;jettySize=auto;html=1;fontSize=13;startArrow=none;startFill=0;endArrow=classic;endFill=1;labelBackgroundColor=none;exitX=0.5;exitY=0;exitDx=0;exitDy=0;" parent="1" source="7CdhdkO9A19Rfal1zVye-5" target="7CdhdkO9A19Rfal1zVye-6" edge="1">
          <mxGeometry x="-0.774" y="36" relative="1" as="geometry">
            <mxPoint x="-30" y="16" as="offset" />
            <Array as="points">
              <mxPoint x="-80" y="300" />
              <mxPoint x="-10" y="300" />
              <mxPoint x="-10" y="340" />
            </Array>
          </mxGeometry>
        </mxCell>
        <mxCell id="7CdhdkO9A19Rfal1zVye-32" style="edgeStyle=orthogonalEdgeStyle;rounded=0;orthogonalLoop=1;jettySize=auto;html=1;exitX=0.5;exitY=0;exitDx=0;exitDy=0;entryX=0.5;entryY=1;entryDx=0;entryDy=0;fontSize=13;startArrow=none;startFill=0;endArrow=classic;endFill=1;labelBackgroundColor=none;" parent="1" source="7CdhdkO9A19Rfal1zVye-5" target="7CdhdkO9A19Rfal1zVye-11" edge="1">
          <mxGeometry relative="1" as="geometry">
            <Array as="points">
              <mxPoint x="-80" y="300" />
              <mxPoint x="-80" y="300" />
            </Array>
          </mxGeometry>
        </mxCell>
        <mxCell id="7CdhdkO9A19Rfal1zVye-5" value="Mesure de position" style="rounded=1;whiteSpace=wrap;html=1;fontSize=13;labelBackgroundColor=none;" parent="1" vertex="1">
          <mxGeometry x="-120" y="320.38" width="80" height="40" as="geometry" />
        </mxCell>
        <mxCell id="7CdhdkO9A19Rfal1zVye-14" value="Vitesse&lt;br&gt;&amp;nbsp;mesurée" style="edgeStyle=orthogonalEdgeStyle;rounded=0;orthogonalLoop=1;jettySize=auto;html=1;exitX=0.5;exitY=0;exitDx=0;exitDy=0;entryX=0.5;entryY=1;entryDx=0;entryDy=0;fontSize=13;startArrow=none;startFill=0;endArrow=classic;endFill=1;labelBackgroundColor=none;" parent="1" source="7CdhdkO9A19Rfal1zVye-6" target="7CdhdkO9A19Rfal1zVye-10" edge="1">
          <mxGeometry y="30" relative="1" as="geometry">
            <Array as="points" />
            <mxPoint as="offset" />
          </mxGeometry>
        </mxCell>
        <mxCell id="7CdhdkO9A19Rfal1zVye-6" value="Mesure de vitesse" style="rounded=1;whiteSpace=wrap;html=1;fontSize=13;labelBackgroundColor=none;" parent="1" vertex="1">
          <mxGeometry x="40" y="320" width="80" height="40" as="geometry" />
        </mxCell>
        <mxCell id="7CdhdkO9A19Rfal1zVye-16" value="Commande&lt;br&gt;de tension" style="edgeStyle=orthogonalEdgeStyle;rounded=0;orthogonalLoop=1;jettySize=auto;html=1;fontSize=13;startArrow=none;startFill=0;endArrow=classic;endFill=1;labelBackgroundColor=none;" parent="1" source="7CdhdkO9A19Rfal1zVye-10" target="7CdhdkO9A19Rfal1zVye-12" edge="1">
          <mxGeometry y="-20" relative="1" as="geometry">
            <mxPoint as="offset" />
          </mxGeometry>
        </mxCell>
        <mxCell id="7CdhdkO9A19Rfal1zVye-10" value="Contrôle en&amp;nbsp;vitesse" style="rounded=1;whiteSpace=wrap;html=1;fontSize=13;labelBackgroundColor=none;" parent="1" vertex="1">
          <mxGeometry x="40" y="200" width="80" height="40" as="geometry" />
        </mxCell>
        <mxCell id="7CdhdkO9A19Rfal1zVye-15" value="Commande&lt;br&gt;de vitesse" style="edgeStyle=orthogonalEdgeStyle;rounded=0;orthogonalLoop=1;jettySize=auto;html=1;exitX=1;exitY=0.5;exitDx=0;exitDy=0;entryX=0;entryY=0.5;entryDx=0;entryDy=0;fontSize=13;startArrow=none;startFill=0;endArrow=classic;endFill=1;labelBackgroundColor=none;" parent="1" source="7CdhdkO9A19Rfal1zVye-11" target="7CdhdkO9A19Rfal1zVye-10" edge="1">
          <mxGeometry y="-20" relative="1" as="geometry">
            <mxPoint as="offset" />
          </mxGeometry>
        </mxCell>
        <mxCell id="7CdhdkO9A19Rfal1zVye-11" value="Contrôle en position" style="rounded=1;whiteSpace=wrap;html=1;fontSize=13;labelBackgroundColor=none;" parent="1" vertex="1">
          <mxGeometry x="-120" y="200" width="80" height="40" as="geometry" />
        </mxCell>
        <mxCell id="7CdhdkO9A19Rfal1zVye-41" style="edgeStyle=orthogonalEdgeStyle;rounded=0;orthogonalLoop=1;jettySize=auto;html=1;exitX=0.5;exitY=0;exitDx=0;exitDy=0;fontSize=13;startArrow=none;startFill=0;endArrow=classic;endFill=1;entryX=0;entryY=0.75;entryDx=0;entryDy=0;labelBackgroundColor=none;" parent="1" source="7CdhdkO9A19Rfal1zVye-12" target="7CdhdkO9A19Rfal1zVye-45" edge="1">
          <mxGeometry relative="1" as="geometry">
            <mxPoint x="360" y="230" as="targetPoint" />
          </mxGeometry>
        </mxCell>
        <mxCell id="7CdhdkO9A19Rfal1zVye-42" value="Direction" style="edgeLabel;html=1;align=center;verticalAlign=middle;resizable=0;points=[];fontSize=13;labelBackgroundColor=none;" parent="7CdhdkO9A19Rfal1zVye-41" vertex="1" connectable="0">
          <mxGeometry x="0.2556" relative="1" as="geometry">
            <mxPoint x="-13" y="-10" as="offset" />
          </mxGeometry>
        </mxCell>
        <mxCell id="7CdhdkO9A19Rfal1zVye-12" value="Contrôle en courant" style="rounded=1;whiteSpace=wrap;html=1;fontSize=13;labelBackgroundColor=none;" parent="1" vertex="1">
          <mxGeometry x="200" y="200" width="80" height="40" as="geometry" />
        </mxCell>
        <mxCell id="7CdhdkO9A19Rfal1zVye-17" value="Rapport&lt;br&gt;cyclique" style="edgeStyle=orthogonalEdgeStyle;rounded=0;orthogonalLoop=1;jettySize=auto;html=1;fontSize=13;startArrow=none;startFill=0;endArrow=classic;endFill=1;entryX=0;entryY=0.5;entryDx=0;entryDy=0;exitX=1;exitY=0.5;exitDx=0;exitDy=0;labelBackgroundColor=none;" parent="1" source="7CdhdkO9A19Rfal1zVye-12" target="7CdhdkO9A19Rfal1zVye-18" edge="1">
          <mxGeometry y="-20" relative="1" as="geometry">
            <mxPoint x="280" y="210.25" as="sourcePoint" />
            <mxPoint x="360" y="210.25" as="targetPoint" />
            <mxPoint as="offset" />
          </mxGeometry>
        </mxCell>
        <mxCell id="7CdhdkO9A19Rfal1zVye-18" value="Génération de PWM" style="rounded=1;whiteSpace=wrap;html=1;fontSize=13;labelBackgroundColor=none;" parent="1" vertex="1">
          <mxGeometry x="360" y="200" width="80" height="40" as="geometry" />
        </mxCell>
        <mxCell id="7CdhdkO9A19Rfal1zVye-19" value="Signal PWM" style="edgeStyle=orthogonalEdgeStyle;rounded=0;orthogonalLoop=1;jettySize=auto;html=1;fontSize=13;startArrow=none;startFill=0;endArrow=classic;endFill=1;labelBackgroundColor=none;" parent="1" edge="1">
          <mxGeometry x="0.0002" y="-10" relative="1" as="geometry">
            <mxPoint x="440" y="219.71000000000004" as="sourcePoint" />
            <mxPoint x="660" y="220" as="targetPoint" />
            <mxPoint as="offset" />
            <Array as="points">
              <mxPoint x="520" y="220" />
              <mxPoint x="641" y="220" />
            </Array>
          </mxGeometry>
        </mxCell>
        <mxCell id="7CdhdkO9A19Rfal1zVye-24" value="Trame CAN" style="edgeStyle=orthogonalEdgeStyle;rounded=0;orthogonalLoop=1;jettySize=auto;html=1;fontSize=13;startArrow=none;startFill=0;endArrow=classic;endFill=1;labelBackgroundColor=none;exitX=0.5;exitY=1;exitDx=0;exitDy=0;entryX=0.5;entryY=0;entryDx=0;entryDy=0;" parent="1" source="7CdhdkO9A19Rfal1zVye-20" target="7CdhdkO9A19Rfal1zVye-23" edge="1">
          <mxGeometry x="0.1429" y="-10" relative="1" as="geometry">
            <mxPoint as="offset" />
            <Array as="points">
              <mxPoint x="70" y="40" />
              <mxPoint x="-80" y="40" />
            </Array>
          </mxGeometry>
        </mxCell>
        <mxCell id="7CdhdkO9A19Rfal1zVye-20" value="Transceiver CAN" style="rounded=0;whiteSpace=wrap;html=1;fontSize=13;labelBackgroundColor=none;" parent="1" vertex="1">
          <mxGeometry x="30" y="-20" width="80" height="40" as="geometry" />
        </mxCell>
        <mxCell id="7CdhdkO9A19Rfal1zVye-23" value="Décodage trame" style="rounded=1;whiteSpace=wrap;html=1;fontSize=13;labelBackgroundColor=none;" parent="1" vertex="1">
          <mxGeometry x="-120" y="80" width="80" height="40" as="geometry" />
        </mxCell>
        <mxCell id="7CdhdkO9A19Rfal1zVye-29" style="edgeStyle=orthogonalEdgeStyle;rounded=0;orthogonalLoop=1;jettySize=auto;html=1;exitX=0.75;exitY=1;exitDx=0;exitDy=0;entryX=0;entryY=0.5;entryDx=0;entryDy=0;fontSize=13;startArrow=none;startFill=0;endArrow=classic;endFill=1;labelBackgroundColor=none;" parent="1" source="7CdhdkO9A19Rfal1zVye-25" target="7CdhdkO9A19Rfal1zVye-12" edge="1">
          <mxGeometry relative="1" as="geometry">
            <Array as="points">
              <mxPoint x="100" y="180" />
              <mxPoint x="140" y="180" />
              <mxPoint x="140" y="220" />
            </Array>
          </mxGeometry>
        </mxCell>
        <mxCell id="7CdhdkO9A19Rfal1zVye-30" style="edgeStyle=orthogonalEdgeStyle;rounded=0;orthogonalLoop=1;jettySize=auto;html=1;exitX=0.5;exitY=1;exitDx=0;exitDy=0;entryX=0;entryY=0.5;entryDx=0;entryDy=0;fontSize=13;startArrow=none;startFill=0;endArrow=classic;endFill=1;labelBackgroundColor=none;" parent="1" source="7CdhdkO9A19Rfal1zVye-25" target="7CdhdkO9A19Rfal1zVye-10" edge="1">
          <mxGeometry relative="1" as="geometry">
            <Array as="points">
              <mxPoint x="80" y="180" />
              <mxPoint x="-20" y="180" />
              <mxPoint x="-20" y="220" />
            </Array>
          </mxGeometry>
        </mxCell>
        <mxCell id="7CdhdkO9A19Rfal1zVye-43" value="&lt;span style=&quot;color: rgb(0, 0, 0); font-family: helvetica; font-size: 13px; font-style: normal; font-weight: 400; letter-spacing: normal; text-align: center; text-indent: 0px; text-transform: none; word-spacing: 0px; display: inline; float: none;&quot;&gt;Commande&lt;br&gt;&lt;/span&gt;&lt;span style=&quot;color: rgb(0, 0, 0); font-family: helvetica; font-size: 13px; font-style: normal; font-weight: 400; letter-spacing: normal; text-align: center; text-indent: 0px; text-transform: none; word-spacing: 0px; display: inline; float: none;&quot;&gt;de position&lt;/span&gt;" style="edgeStyle=orthogonalEdgeStyle;rounded=0;orthogonalLoop=1;jettySize=auto;html=1;exitX=0.25;exitY=1;exitDx=0;exitDy=0;entryX=0;entryY=0.5;entryDx=0;entryDy=0;fontSize=13;startArrow=none;startFill=0;endArrow=classic;endFill=1;labelBackgroundColor=none;" parent="1" source="7CdhdkO9A19Rfal1zVye-25" target="7CdhdkO9A19Rfal1zVye-11" edge="1">
          <mxGeometry x="0.2667" y="20" relative="1" as="geometry">
            <mxPoint x="1" as="offset" />
            <Array as="points">
              <mxPoint x="60" y="160" />
              <mxPoint x="-140" y="160" />
              <mxPoint x="-140" y="220" />
            </Array>
          </mxGeometry>
        </mxCell>
        <mxCell id="7CdhdkO9A19Rfal1zVye-46" value="Mode de contrôle" style="edgeStyle=orthogonalEdgeStyle;rounded=0;orthogonalLoop=1;jettySize=auto;html=1;exitX=1;exitY=0.5;exitDx=0;exitDy=0;entryX=0;entryY=0.25;entryDx=0;entryDy=0;fontSize=13;startArrow=none;startFill=0;endArrow=classic;endFill=1;labelBackgroundColor=none;" parent="1" source="7CdhdkO9A19Rfal1zVye-25" target="7CdhdkO9A19Rfal1zVye-45" edge="1">
          <mxGeometry x="0.1667" y="10" relative="1" as="geometry">
            <mxPoint as="offset" />
          </mxGeometry>
        </mxCell>
        <mxCell id="7CdhdkO9A19Rfal1zVye-25" value="Gestion du contrôle" style="rounded=1;whiteSpace=wrap;html=1;fontSize=13;labelBackgroundColor=none;" parent="1" vertex="1">
          <mxGeometry x="40" y="80" width="80" height="40" as="geometry" />
        </mxCell>
        <mxCell id="7CdhdkO9A19Rfal1zVye-26" value="Commande" style="edgeStyle=orthogonalEdgeStyle;rounded=0;orthogonalLoop=1;jettySize=auto;html=1;fontSize=13;startArrow=none;startFill=0;endArrow=classic;endFill=1;labelBackgroundColor=none;" parent="1" edge="1">
          <mxGeometry y="-10" relative="1" as="geometry">
            <mxPoint x="-40" y="110" as="sourcePoint" />
            <mxPoint x="40" y="110" as="targetPoint" />
            <mxPoint as="offset" />
          </mxGeometry>
        </mxCell>
        <mxCell id="7CdhdkO9A19Rfal1zVye-27" value="Mode de &lt;br&gt;contrôle" style="edgeStyle=orthogonalEdgeStyle;rounded=0;orthogonalLoop=1;jettySize=auto;html=1;fontSize=13;startArrow=none;startFill=0;endArrow=classic;endFill=1;labelBackgroundColor=none;" parent="1" edge="1">
          <mxGeometry y="20" relative="1" as="geometry">
            <mxPoint x="-40" y="90" as="sourcePoint" />
            <mxPoint x="40" y="90" as="targetPoint" />
            <mxPoint as="offset" />
          </mxGeometry>
        </mxCell>
        <mxCell id="7CdhdkO9A19Rfal1zVye-39" style="edgeStyle=orthogonalEdgeStyle;rounded=0;orthogonalLoop=1;jettySize=auto;html=1;exitX=0;exitY=0.5;exitDx=0;exitDy=0;entryX=1;entryY=0.5;entryDx=0;entryDy=0;fontSize=13;startArrow=none;startFill=0;endArrow=classic;endFill=1;strokeWidth=3;labelBackgroundColor=none;" parent="1" source="7CdhdkO9A19Rfal1zVye-34" target="7CdhdkO9A19Rfal1zVye-36" edge="1">
          <mxGeometry relative="1" as="geometry" />
        </mxCell>
        <mxCell id="7CdhdkO9A19Rfal1zVye-40" value="Tensions images &lt;br&gt;du courant dans&amp;nbsp;les&lt;br&gt;phases A, B et C" style="edgeLabel;html=1;align=center;verticalAlign=middle;resizable=0;points=[];fontSize=13;labelBackgroundColor=none;" parent="7CdhdkO9A19Rfal1zVye-39" vertex="1" connectable="0">
          <mxGeometry x="-0.575" relative="1" as="geometry">
            <mxPoint x="-29" y="30" as="offset" />
          </mxGeometry>
        </mxCell>
        <mxCell id="7CdhdkO9A19Rfal1zVye-34" value="Ampli. différentiels" style="rounded=0;whiteSpace=wrap;html=1;fontSize=13;labelBackgroundColor=none;" parent="1" vertex="1">
          <mxGeometry x="660" y="320" width="80" height="40" as="geometry" />
        </mxCell>
        <mxCell id="7CdhdkO9A19Rfal1zVye-36" value="Mesure de courant" style="rounded=1;whiteSpace=wrap;html=1;fontSize=13;labelBackgroundColor=none;" parent="1" vertex="1">
          <mxGeometry x="200" y="320" width="80" height="40" as="geometry" />
        </mxCell>
        <mxCell id="7CdhdkO9A19Rfal1zVye-38" value="Courant&lt;br&gt;mesuré" style="edgeStyle=orthogonalEdgeStyle;rounded=0;orthogonalLoop=1;jettySize=auto;html=1;exitX=0.5;exitY=0;exitDx=0;exitDy=0;entryX=0.5;entryY=1;entryDx=0;entryDy=0;fontSize=13;startArrow=none;startFill=0;endArrow=classic;endFill=1;labelBackgroundColor=none;" parent="1" edge="1">
          <mxGeometry y="30" relative="1" as="geometry">
            <mxPoint x="239.71" y="319.9999999999998" as="sourcePoint" />
            <mxPoint x="239.71" y="240" as="targetPoint" />
            <Array as="points" />
            <mxPoint as="offset" />
          </mxGeometry>
        </mxCell>
        <mxCell id="7CdhdkO9A19Rfal1zVye-54" style="edgeStyle=orthogonalEdgeStyle;rounded=0;orthogonalLoop=1;jettySize=auto;html=1;exitX=1;exitY=0.25;exitDx=0;exitDy=0;fontSize=13;startArrow=none;startFill=0;endArrow=classic;endFill=1;labelBackgroundColor=none;" parent="1" source="7CdhdkO9A19Rfal1zVye-45" edge="1">
          <mxGeometry relative="1" as="geometry">
            <mxPoint x="660" y="100" as="targetPoint" />
          </mxGeometry>
        </mxCell>
        <mxCell id="7CdhdkO9A19Rfal1zVye-55" value="Signal de freinage" style="edgeLabel;html=1;align=center;verticalAlign=middle;resizable=0;points=[];fontSize=13;labelBackgroundColor=none;" parent="7CdhdkO9A19Rfal1zVye-54" vertex="1" connectable="0">
          <mxGeometry x="0.2906" y="-1" relative="1" as="geometry">
            <mxPoint x="-42" y="-11" as="offset" />
          </mxGeometry>
        </mxCell>
        <mxCell id="7CdhdkO9A19Rfal1zVye-45" value="Gestion des signaux du driver" style="rounded=1;whiteSpace=wrap;html=1;fontSize=13;labelBackgroundColor=none;" parent="1" vertex="1">
          <mxGeometry x="360" y="80" width="80" height="80" as="geometry" />
        </mxCell>
        <mxCell id="7CdhdkO9A19Rfal1zVye-48" value="&lt;span style=&quot;color: rgb(0, 0, 0); font-family: Helvetica; font-size: 13px; font-style: normal; font-variant-ligatures: normal; font-variant-caps: normal; font-weight: 400; letter-spacing: normal; orphans: 2; text-align: center; text-indent: 0px; text-transform: none; widows: 2; word-spacing: 0px; -webkit-text-stroke-width: 0px; text-decoration-thickness: initial; text-decoration-style: initial; text-decoration-color: initial; float: none; display: inline !important;&quot;&gt;Etats capteurs Hall&lt;/span&gt;" style="endArrow=halfCircle;html=1;rounded=0;fontSize=13;endFill=0;strokeWidth=3;labelBackgroundColor=none;" parent="1" edge="1">
          <mxGeometry x="-0.6923" y="-80" width="50" height="50" relative="1" as="geometry">
            <mxPoint x="170" y="410" as="sourcePoint" />
            <mxPoint x="170" y="280" as="targetPoint" />
            <mxPoint as="offset" />
          </mxGeometry>
        </mxCell>
        <mxCell id="7CdhdkO9A19Rfal1zVye-49" value="Etats capteurs Hall" style="endArrow=halfCircle;html=1;rounded=0;fontSize=13;endFill=0;exitX=0;exitY=0.5;exitDx=0;exitDy=0;strokeWidth=3;labelBackgroundColor=none;" parent="1" source="7CdhdkO9A19Rfal1zVye-45" edge="1">
          <mxGeometry x="-0.2308" y="-10" width="50" height="50" relative="1" as="geometry">
            <mxPoint x="180" y="470" as="sourcePoint" />
            <mxPoint x="170" y="190" as="targetPoint" />
            <Array as="points">
              <mxPoint x="170" y="120" />
            </Array>
            <mxPoint as="offset" />
          </mxGeometry>
        </mxCell>
        <mxCell id="7CdhdkO9A19Rfal1zVye-87" value="Commandes&lt;br&gt;des grilles" style="edgeStyle=orthogonalEdgeStyle;rounded=0;jumpStyle=none;jumpSize=6;orthogonalLoop=1;jettySize=auto;html=1;exitX=1;exitY=0.5;exitDx=0;exitDy=0;fontSize=13;startArrow=none;startFill=0;endArrow=classic;endFill=1;strokeColor=default;strokeWidth=3;labelBackgroundColor=none;entryX=0;entryY=0.5;entryDx=0;entryDy=0;" parent="1" source="7CdhdkO9A19Rfal1zVye-53" target="AbkL1HbmutMjZFaHs2S1-54" edge="1">
          <mxGeometry x="0.0293" y="20" relative="1" as="geometry">
            <mxPoint x="910" y="190" as="targetPoint" />
            <mxPoint y="1" as="offset" />
            <Array as="points" />
          </mxGeometry>
        </mxCell>
        <mxCell id="7CdhdkO9A19Rfal1zVye-53" value="Pilotage intelligent des grilles" style="rounded=1;whiteSpace=wrap;html=1;fontSize=13;labelBackgroundColor=none;" parent="1" vertex="1">
          <mxGeometry x="660" y="70" width="80" height="240" as="geometry" />
        </mxCell>
        <mxCell id="7CdhdkO9A19Rfal1zVye-92" value="Phases A, B et C" style="edgeStyle=orthogonalEdgeStyle;rounded=0;jumpStyle=none;jumpSize=6;orthogonalLoop=1;jettySize=auto;html=1;fontSize=13;startArrow=none;startFill=0;endArrow=classic;endFill=1;strokeColor=#b85450;strokeWidth=10;entryX=0.5;entryY=0;entryDx=0;entryDy=0;labelBackgroundColor=none;fillColor=#f8cecc;" parent="1" target="7CdhdkO9A19Rfal1zVye-1" edge="1">
          <mxGeometry x="0.1056" y="20" relative="1" as="geometry">
            <mxPoint x="1280" y="129" as="targetPoint" />
            <mxPoint x="1160" y="150" as="sourcePoint" />
            <mxPoint as="offset" />
            <Array as="points">
              <mxPoint x="1160" y="150" />
              <mxPoint x="1240" y="150" />
              <mxPoint x="1240" y="200" />
            </Array>
          </mxGeometry>
        </mxCell>
        <mxCell id="7CdhdkO9A19Rfal1zVye-56" style="edgeStyle=orthogonalEdgeStyle;rounded=0;orthogonalLoop=1;jettySize=auto;html=1;exitX=1;exitY=0.25;exitDx=0;exitDy=0;fontSize=13;startArrow=none;startFill=0;endArrow=classic;endFill=1;labelBackgroundColor=none;" parent="1" edge="1">
          <mxGeometry relative="1" as="geometry">
            <mxPoint x="440" y="120" as="sourcePoint" />
            <mxPoint x="660" y="120" as="targetPoint" />
          </mxGeometry>
        </mxCell>
        <mxCell id="7CdhdkO9A19Rfal1zVye-57" value="Signal de direction" style="edgeLabel;html=1;align=center;verticalAlign=middle;resizable=0;points=[];fontSize=13;labelBackgroundColor=none;" parent="7CdhdkO9A19Rfal1zVye-56" vertex="1" connectable="0">
          <mxGeometry x="0.2906" y="-1" relative="1" as="geometry">
            <mxPoint x="-42" y="-11" as="offset" />
          </mxGeometry>
        </mxCell>
        <mxCell id="7CdhdkO9A19Rfal1zVye-58" style="edgeStyle=orthogonalEdgeStyle;rounded=0;orthogonalLoop=1;jettySize=auto;html=1;exitX=1;exitY=0.25;exitDx=0;exitDy=0;fontSize=13;startArrow=none;startFill=0;endArrow=classic;endFill=1;strokeColor=default;jumpSize=6;jumpStyle=none;strokeWidth=3;labelBackgroundColor=none;" parent="1" edge="1">
          <mxGeometry relative="1" as="geometry">
            <mxPoint x="440" y="140" as="sourcePoint" />
            <mxPoint x="660" y="140" as="targetPoint" />
          </mxGeometry>
        </mxCell>
        <mxCell id="7CdhdkO9A19Rfal1zVye-59" value="Signaux effet Hall a&#39;, b&#39; et c&#39;" style="edgeLabel;html=1;align=center;verticalAlign=middle;resizable=0;points=[];fontSize=13;labelBackgroundColor=none;" parent="7CdhdkO9A19Rfal1zVye-58" vertex="1" connectable="0">
          <mxGeometry x="0.2906" y="-1" relative="1" as="geometry">
            <mxPoint x="-42" y="-11" as="offset" />
          </mxGeometry>
        </mxCell>
        <mxCell id="7CdhdkO9A19Rfal1zVye-61" value="Bus SPI" style="edgeStyle=orthogonalEdgeStyle;rounded=0;jumpStyle=none;jumpSize=6;orthogonalLoop=1;jettySize=auto;html=1;exitX=1;exitY=0.5;exitDx=0;exitDy=0;fontSize=13;startArrow=none;startFill=0;endArrow=classic;endFill=1;strokeColor=default;strokeWidth=3;labelBackgroundColor=none;" parent="1" source="7CdhdkO9A19Rfal1zVye-60" edge="1">
          <mxGeometry y="-10" relative="1" as="geometry">
            <mxPoint x="660" y="290" as="targetPoint" />
            <Array as="points">
              <mxPoint x="570" y="290" />
              <mxPoint x="570" y="290" />
            </Array>
            <mxPoint as="offset" />
          </mxGeometry>
        </mxCell>
        <mxCell id="7CdhdkO9A19Rfal1zVye-60" value="Configuration du driver" style="rounded=1;whiteSpace=wrap;html=1;fontSize=13;labelBackgroundColor=none;" parent="1" vertex="1">
          <mxGeometry x="360" y="270" width="80" height="40" as="geometry" />
        </mxCell>
        <mxCell id="7CdhdkO9A19Rfal1zVye-102" value="Microcontrôleur" style="text;html=1;strokeColor=none;fillColor=none;align=center;verticalAlign=middle;whiteSpace=wrap;rounded=0;fontSize=20;labelBackgroundColor=none;" parent="1" vertex="1">
          <mxGeometry x="70" y="47.5" width="110" height="30" as="geometry" />
        </mxCell>
        <mxCell id="7CdhdkO9A19Rfal1zVye-104" value="Driver" style="text;html=1;strokeColor=none;fillColor=none;align=center;verticalAlign=middle;whiteSpace=wrap;rounded=0;fontSize=20;labelBackgroundColor=none;" parent="1" vertex="1">
          <mxGeometry x="720" y="-40" width="110" height="30" as="geometry" />
        </mxCell>
        <mxCell id="7CdhdkO9A19Rfal1zVye-35" value="Tensions &lt;br&gt;différentielles&lt;br&gt;&amp;nbsp;A, B et C" style="edgeStyle=orthogonalEdgeStyle;rounded=0;orthogonalLoop=1;jettySize=auto;html=1;exitX=0;exitY=0.5;exitDx=0;exitDy=0;entryX=1;entryY=0.5;entryDx=0;entryDy=0;fontSize=13;startArrow=none;startFill=0;endArrow=classic;endFill=1;strokeWidth=3;labelBackgroundColor=none;" parent="1" source="AbkL1HbmutMjZFaHs2S1-2" target="7CdhdkO9A19Rfal1zVye-34" edge="1">
          <mxGeometry x="-0.5" y="30" relative="1" as="geometry">
            <Array as="points">
              <mxPoint x="980" y="320" />
              <mxPoint x="980" y="340" />
            </Array>
            <mxPoint as="offset" />
            <mxPoint x="900" y="290" as="sourcePoint" />
          </mxGeometry>
        </mxCell>
        <mxCell id="AbkL1HbmutMjZFaHs2S1-35" value="" style="group" parent="1" vertex="1" connectable="0">
          <mxGeometry x="1017.5" y="100" width="105" height="180" as="geometry" />
        </mxCell>
        <mxCell id="AbkL1HbmutMjZFaHs2S1-16" value="" style="endArrow=none;html=1;rounded=0;fontSize=13;strokeColor=default;strokeWidth=3;jumpStyle=none;jumpSize=6;labelBackgroundColor=none;" parent="AbkL1HbmutMjZFaHs2S1-35" edge="1">
          <mxGeometry width="50" height="50" relative="1" as="geometry">
            <mxPoint y="25.714285714285705" as="sourcePoint" />
            <mxPoint x="100" y="25.714285714285705" as="targetPoint" />
          </mxGeometry>
        </mxCell>
        <mxCell id="AbkL1HbmutMjZFaHs2S1-17" value="" style="endArrow=none;html=1;rounded=0;fontSize=13;strokeColor=default;strokeWidth=3;jumpStyle=none;jumpSize=6;labelBackgroundColor=none;" parent="AbkL1HbmutMjZFaHs2S1-35" edge="1">
          <mxGeometry width="50" height="50" relative="1" as="geometry">
            <mxPoint x="50" as="sourcePoint" />
            <mxPoint x="50" y="25.714285714285705" as="targetPoint" />
          </mxGeometry>
        </mxCell>
        <mxCell id="AbkL1HbmutMjZFaHs2S1-4" value="" style="endArrow=none;html=1;rounded=0;fontSize=13;strokeColor=default;strokeWidth=3;jumpStyle=none;jumpSize=6;labelBackgroundColor=none;" parent="AbkL1HbmutMjZFaHs2S1-35" edge="1">
          <mxGeometry width="50" height="50" relative="1" as="geometry">
            <mxPoint x="18.75" y="96.42857142857144" as="sourcePoint" />
            <mxPoint y="25.714285714285705" as="targetPoint" />
            <Array as="points">
              <mxPoint y="77.14285714285715" />
            </Array>
          </mxGeometry>
        </mxCell>
        <mxCell id="AbkL1HbmutMjZFaHs2S1-5" value="" style="endArrow=none;html=1;rounded=0;fontSize=13;strokeColor=default;strokeWidth=3;jumpStyle=none;jumpSize=6;labelBackgroundColor=none;" parent="AbkL1HbmutMjZFaHs2S1-35" edge="1">
          <mxGeometry width="50" height="50" relative="1" as="geometry">
            <mxPoint x="18.75" y="147.85714285714286" as="sourcePoint" />
            <mxPoint y="102.85714285714282" as="targetPoint" />
            <Array as="points">
              <mxPoint y="128.57142857142858" />
            </Array>
          </mxGeometry>
        </mxCell>
        <mxCell id="AbkL1HbmutMjZFaHs2S1-6" value="" style="endArrow=none;html=1;rounded=0;fontSize=13;strokeColor=default;strokeWidth=3;jumpStyle=none;jumpSize=6;labelBackgroundColor=none;" parent="AbkL1HbmutMjZFaHs2S1-35" edge="1">
          <mxGeometry width="50" height="50" relative="1" as="geometry">
            <mxPoint x="68.75" y="96.42857142857144" as="sourcePoint" />
            <mxPoint x="50" y="25.714285714285705" as="targetPoint" />
            <Array as="points">
              <mxPoint x="50" y="77.14285714285715" />
            </Array>
          </mxGeometry>
        </mxCell>
        <mxCell id="AbkL1HbmutMjZFaHs2S1-7" value="" style="endArrow=none;html=1;rounded=0;fontSize=13;strokeColor=default;strokeWidth=3;jumpStyle=none;jumpSize=6;labelBackgroundColor=none;" parent="AbkL1HbmutMjZFaHs2S1-35" edge="1">
          <mxGeometry width="50" height="50" relative="1" as="geometry">
            <mxPoint x="68.75" y="147.85714285714286" as="sourcePoint" />
            <mxPoint x="50" y="102.85714285714282" as="targetPoint" />
            <Array as="points">
              <mxPoint x="50" y="128.57142857142858" />
            </Array>
          </mxGeometry>
        </mxCell>
        <mxCell id="AbkL1HbmutMjZFaHs2S1-8" value="" style="endArrow=none;html=1;rounded=0;fontSize=13;strokeColor=default;strokeWidth=3;jumpStyle=none;jumpSize=6;labelBackgroundColor=none;" parent="AbkL1HbmutMjZFaHs2S1-35" edge="1">
          <mxGeometry width="50" height="50" relative="1" as="geometry">
            <mxPoint x="118.75" y="96.42857142857144" as="sourcePoint" />
            <mxPoint x="100" y="25.714285714285705" as="targetPoint" />
            <Array as="points">
              <mxPoint x="100" y="77.14285714285715" />
            </Array>
          </mxGeometry>
        </mxCell>
        <mxCell id="AbkL1HbmutMjZFaHs2S1-9" value="" style="endArrow=none;html=1;rounded=0;fontSize=13;strokeColor=default;strokeWidth=3;jumpStyle=none;jumpSize=6;labelBackgroundColor=none;" parent="AbkL1HbmutMjZFaHs2S1-35" edge="1">
          <mxGeometry width="50" height="50" relative="1" as="geometry">
            <mxPoint x="118.75" y="147.85714285714286" as="sourcePoint" />
            <mxPoint x="100" y="102.85714285714282" as="targetPoint" />
            <Array as="points">
              <mxPoint x="100" y="128.57142857142858" />
            </Array>
          </mxGeometry>
        </mxCell>
        <mxCell id="AbkL1HbmutMjZFaHs2S1-10" value="" style="endArrow=none;html=1;rounded=0;fontSize=13;strokeColor=default;strokeWidth=3;jumpStyle=none;jumpSize=6;labelBackgroundColor=none;" parent="AbkL1HbmutMjZFaHs2S1-35" edge="1">
          <mxGeometry width="50" height="50" relative="1" as="geometry">
            <mxPoint y="154.2857142857143" as="sourcePoint" />
            <mxPoint y="205.71428571428564" as="targetPoint" />
            <Array as="points">
              <mxPoint y="180" />
            </Array>
          </mxGeometry>
        </mxCell>
        <mxCell id="AbkL1HbmutMjZFaHs2S1-11" value="" style="endArrow=none;html=1;rounded=0;fontSize=13;strokeColor=default;strokeWidth=3;jumpStyle=none;jumpSize=6;labelBackgroundColor=none;" parent="AbkL1HbmutMjZFaHs2S1-35" edge="1">
          <mxGeometry width="50" height="50" relative="1" as="geometry">
            <mxPoint x="49.849999999999994" y="154.2857142857143" as="sourcePoint" />
            <mxPoint x="49.849999999999994" y="205.71428571428564" as="targetPoint" />
            <Array as="points">
              <mxPoint x="49.849999999999994" y="180" />
            </Array>
          </mxGeometry>
        </mxCell>
        <mxCell id="AbkL1HbmutMjZFaHs2S1-12" value="" style="endArrow=none;html=1;rounded=0;fontSize=13;strokeColor=default;strokeWidth=3;jumpStyle=none;jumpSize=6;labelBackgroundColor=none;" parent="AbkL1HbmutMjZFaHs2S1-35" edge="1">
          <mxGeometry width="50" height="50" relative="1" as="geometry">
            <mxPoint x="100.00000000000014" y="154.2857142857143" as="sourcePoint" />
            <mxPoint x="100.00000000000014" y="205.71428571428564" as="targetPoint" />
            <Array as="points">
              <mxPoint x="100" y="180" />
            </Array>
          </mxGeometry>
        </mxCell>
        <mxCell id="AbkL1HbmutMjZFaHs2S1-36" value="" style="pointerEvents=1;verticalLabelPosition=bottom;shadow=0;dashed=0;align=center;html=1;verticalAlign=top;shape=mxgraph.electrical.signal_sources.signal_ground;fontSize=13;labelBackgroundColor=none;strokeWidth=3;" parent="1" vertex="1">
          <mxGeometry x="1110" y="340.38" width="20" height="20" as="geometry" />
        </mxCell>
        <mxCell id="AbkL1HbmutMjZFaHs2S1-37" value="" style="pointerEvents=1;verticalLabelPosition=bottom;shadow=0;dashed=0;align=center;html=1;verticalAlign=top;shape=mxgraph.electrical.signal_sources.signal_ground;fontSize=13;labelBackgroundColor=none;strokeWidth=3;" parent="1" vertex="1">
          <mxGeometry x="1060" y="340" width="20" height="20" as="geometry" />
        </mxCell>
        <mxCell id="AbkL1HbmutMjZFaHs2S1-38" value="" style="pointerEvents=1;verticalLabelPosition=bottom;shadow=0;dashed=0;align=center;html=1;verticalAlign=top;shape=mxgraph.electrical.signal_sources.signal_ground;fontSize=13;labelBackgroundColor=none;strokeWidth=3;" parent="1" vertex="1">
          <mxGeometry x="1010" y="340" width="20" height="20" as="geometry" />
        </mxCell>
        <mxCell id="AbkL1HbmutMjZFaHs2S1-2" value="Résistances de shunt" style="rounded=0;whiteSpace=wrap;html=1;fontSize=13;labelBackgroundColor=none;" parent="1" vertex="1">
          <mxGeometry x="1000" y="300" width="150" height="40" as="geometry" />
        </mxCell>
        <mxCell id="7CdhdkO9A19Rfal1zVye-106" value="Onduleur" style="text;html=1;strokeColor=none;fillColor=none;align=center;verticalAlign=middle;whiteSpace=wrap;rounded=0;fontSize=20;labelBackgroundColor=none;" parent="1" vertex="1">
          <mxGeometry x="1017.5" y="69.99909090909091" width="110" height="28.636363636363637" as="geometry" />
        </mxCell>
        <mxCell id="AbkL1HbmutMjZFaHs2S1-39" value="Bus CAN" style="endArrow=none;html=1;rounded=0;shape=link;fontSize=13;" parent="1" edge="1">
          <mxGeometry x="-1" y="22" width="50" height="50" relative="1" as="geometry">
            <mxPoint x="40" y="-110" as="sourcePoint" />
            <mxPoint x="820" y="-110" as="targetPoint" />
            <mxPoint x="-10" y="2" as="offset" />
          </mxGeometry>
        </mxCell>
        <mxCell id="AbkL1HbmutMjZFaHs2S1-41" value="" style="endArrow=none;html=1;rounded=0;entryX=0.5;entryY=0;entryDx=0;entryDy=0;shape=link;fontSize=13;" parent="1" target="7CdhdkO9A19Rfal1zVye-20" edge="1">
          <mxGeometry width="50" height="50" relative="1" as="geometry">
            <mxPoint x="70" y="-110" as="sourcePoint" />
            <mxPoint x="-190" y="130" as="targetPoint" />
          </mxGeometry>
        </mxCell>
        <mxCell id="AbkL1HbmutMjZFaHs2S1-43" value="Carte moteur" style="text;html=1;strokeColor=none;fillColor=none;align=center;verticalAlign=middle;whiteSpace=wrap;rounded=0;strokeWidth=1;fontSize=30;" parent="1" vertex="1">
          <mxGeometry x="380" y="-50" width="210" height="30" as="geometry" />
        </mxCell>
        <mxCell id="AbkL1HbmutMjZFaHs2S1-44" value="Carte principale" style="shape=cube;whiteSpace=wrap;html=1;boundedLbl=1;backgroundOutline=1;darkOpacity=0.05;darkOpacity2=0.1;size=10;fontSize=13;" parent="1" vertex="1">
          <mxGeometry x="60" y="-220" width="130" height="65" as="geometry" />
        </mxCell>
        <mxCell id="AbkL1HbmutMjZFaHs2S1-51" value="" style="endArrow=none;html=1;rounded=0;shape=link;exitX=0;exitY=0;exitDx=70;exitDy=65;exitPerimeter=0;" parent="1" source="AbkL1HbmutMjZFaHs2S1-47" edge="1">
          <mxGeometry width="50" height="50" relative="1" as="geometry">
            <mxPoint x="490" y="-140" as="sourcePoint" />
            <mxPoint x="530" y="-110" as="targetPoint" />
          </mxGeometry>
        </mxCell>
        <mxCell id="AbkL1HbmutMjZFaHs2S1-52" value="" style="endArrow=none;html=1;rounded=0;shape=link;exitX=0;exitY=0;exitDx=70;exitDy=65;exitPerimeter=0;" parent="1" source="AbkL1HbmutMjZFaHs2S1-48" edge="1">
          <mxGeometry width="50" height="50" relative="1" as="geometry">
            <mxPoint x="274" y="-130" as="sourcePoint" />
            <mxPoint x="330" y="-110" as="targetPoint" />
          </mxGeometry>
        </mxCell>
        <mxCell id="AbkL1HbmutMjZFaHs2S1-53" value="" style="endArrow=none;html=1;rounded=0;shape=link;exitX=0;exitY=0;exitDx=70;exitDy=65;exitPerimeter=0;" parent="1" source="AbkL1HbmutMjZFaHs2S1-44" edge="1">
          <mxGeometry width="50" height="50" relative="1" as="geometry">
            <mxPoint x="-67" y="-137" as="sourcePoint" />
            <mxPoint x="130" y="-110" as="targetPoint" />
          </mxGeometry>
        </mxCell>
        <mxCell id="AbkL1HbmutMjZFaHs2S1-47" value="Carte moteur 3" style="shape=cube;whiteSpace=wrap;html=1;boundedLbl=1;backgroundOutline=1;darkOpacity=0.05;darkOpacity2=0.1;size=10;fontSize=13;" parent="1" vertex="1">
          <mxGeometry x="460" y="-220" width="130" height="65" as="geometry" />
        </mxCell>
        <mxCell id="AbkL1HbmutMjZFaHs2S1-48" value="Carte moteur 2" style="shape=cube;whiteSpace=wrap;html=1;boundedLbl=1;backgroundOutline=1;darkOpacity=0.05;darkOpacity2=0.1;size=10;fontSize=13;" parent="1" vertex="1">
          <mxGeometry x="260" y="-220" width="130" height="65" as="geometry" />
        </mxCell>
        <mxCell id="AbkL1HbmutMjZFaHs2S1-49" value="Carte moteur 4" style="shape=cube;whiteSpace=wrap;html=1;boundedLbl=1;backgroundOutline=1;darkOpacity=0.05;darkOpacity2=0.1;size=10;fontSize=13;" parent="1" vertex="1">
          <mxGeometry x="660" y="-220" width="130" height="65" as="geometry" />
        </mxCell>
        <mxCell id="AbkL1HbmutMjZFaHs2S1-54" value="Pilotes de grilles" style="rounded=0;whiteSpace=wrap;html=1;fontSize=13;labelBackgroundColor=none;" parent="1" vertex="1">
          <mxGeometry x="820" y="70" width="80" height="240" as="geometry" />
        </mxCell>
        <mxCell id="AbkL1HbmutMjZFaHs2S1-55" value="Courants&lt;br&gt;de grilles" style="edgeStyle=orthogonalEdgeStyle;rounded=0;jumpStyle=none;jumpSize=6;orthogonalLoop=1;jettySize=auto;html=1;exitX=1;exitY=0.5;exitDx=0;exitDy=0;fontSize=13;startArrow=none;startFill=0;endArrow=classic;endFill=1;strokeColor=#b85450;strokeWidth=5;labelBackgroundColor=none;entryX=-0.011;entryY=0.402;entryDx=0;entryDy=0;entryPerimeter=0;fillColor=#f8cecc;" parent="1" target="7CdhdkO9A19Rfal1zVye-105" edge="1">
          <mxGeometry x="0.1474" y="-30" relative="1" as="geometry">
            <mxPoint x="980" y="189.82" as="targetPoint" />
            <mxPoint as="offset" />
            <mxPoint x="900" y="189.82" as="sourcePoint" />
            <Array as="points">
              <mxPoint x="900" y="191" />
            </Array>
          </mxGeometry>
        </mxCell>
        <mxCell id="AbkL1HbmutMjZFaHs2S1-64" style="edgeStyle=orthogonalEdgeStyle;rounded=0;orthogonalLoop=1;jettySize=auto;html=1;exitX=0;exitY=0.5;exitDx=0;exitDy=0;fillColor=#f8cecc;strokeColor=#b85450;strokeWidth=5;fontSize=13;entryX=1;entryY=0.5;entryDx=0;entryDy=0;" parent="1" source="AbkL1HbmutMjZFaHs2S1-56" target="S1nSFLTQMd438xBRWyAU-1" edge="1">
          <mxGeometry relative="1" as="geometry">
            <Array as="points">
              <mxPoint x="620" y="20" />
              <mxPoint x="620" y="60" />
            </Array>
          </mxGeometry>
        </mxCell>
        <mxCell id="AbkL1HbmutMjZFaHs2S1-56" value="Régulateur Buck 5V" style="rounded=0;whiteSpace=wrap;html=1;fontSize=13;labelBackgroundColor=none;" parent="1" vertex="1">
          <mxGeometry x="660" width="80" height="40" as="geometry" />
        </mxCell>
        <mxCell id="AbkL1HbmutMjZFaHs2S1-63" value="Alimentation 5V" style="edgeStyle=orthogonalEdgeStyle;rounded=0;orthogonalLoop=1;jettySize=auto;html=1;entryX=1;entryY=0.5;entryDx=0;entryDy=0;fillColor=#f8cecc;strokeColor=#b85450;strokeWidth=5;fontSize=13;exitX=0;exitY=0.5;exitDx=0;exitDy=0;" parent="1" source="AbkL1HbmutMjZFaHs2S1-56" target="7CdhdkO9A19Rfal1zVye-20" edge="1">
          <mxGeometry x="-0.0175" y="10" relative="1" as="geometry">
            <mxPoint as="offset" />
            <mxPoint x="240" as="sourcePoint" />
            <Array as="points">
              <mxPoint x="620" y="20" />
              <mxPoint x="620" />
            </Array>
          </mxGeometry>
        </mxCell>
        <mxCell id="AbkL1HbmutMjZFaHs2S1-65" style="edgeStyle=orthogonalEdgeStyle;rounded=0;orthogonalLoop=1;jettySize=auto;html=1;endArrow=halfCircle;endFill=0;strokeWidth=5;fillColor=#f8cecc;strokeColor=#b85450;" parent="1" edge="1">
          <mxGeometry relative="1" as="geometry">
            <mxPoint x="620" y="-20" as="targetPoint" />
            <mxPoint x="620" y="10" as="sourcePoint" />
          </mxGeometry>
        </mxCell>
        <mxCell id="AbkL1HbmutMjZFaHs2S1-59" style="edgeStyle=orthogonalEdgeStyle;rounded=0;orthogonalLoop=1;jettySize=auto;html=1;exitX=0;exitY=0;exitDx=70;exitDy=65;exitPerimeter=0;fillColor=#f8cecc;strokeColor=#b85450;strokeWidth=10;" parent="1" source="oSYwLP9_FxzP6isK_3Uv-2" target="7CdhdkO9A19Rfal1zVye-105" edge="1">
          <mxGeometry relative="1" as="geometry">
            <mxPoint x="1075" y="-140" as="sourcePoint" />
          </mxGeometry>
        </mxCell>
        <mxCell id="AbkL1HbmutMjZFaHs2S1-60" style="edgeStyle=orthogonalEdgeStyle;rounded=0;orthogonalLoop=1;jettySize=auto;html=1;exitX=0;exitY=0;exitDx=65;exitDy=80;exitPerimeter=0;entryX=1;entryY=0.5;entryDx=0;entryDy=0;strokeWidth=5;fillColor=#f8cecc;strokeColor=#b85450;" parent="1" target="AbkL1HbmutMjZFaHs2S1-56" edge="1">
          <mxGeometry relative="1" as="geometry">
            <mxPoint x="1075" y="-140" as="sourcePoint" />
            <Array as="points">
              <mxPoint x="1075" y="20" />
            </Array>
          </mxGeometry>
        </mxCell>
        <mxCell id="AbkL1HbmutMjZFaHs2S1-61" value="Alimentation 36V" style="edgeStyle=orthogonalEdgeStyle;rounded=0;orthogonalLoop=1;jettySize=auto;html=1;exitX=0;exitY=0;exitDx=70;exitDy=65;exitPerimeter=0;fillColor=#f8cecc;strokeColor=#b85450;strokeWidth=8;fontSize=13;" parent="1" source="oSYwLP9_FxzP6isK_3Uv-2" target="AbkL1HbmutMjZFaHs2S1-54" edge="1">
          <mxGeometry x="0.0589" y="-20" relative="1" as="geometry">
            <Array as="points">
              <mxPoint x="1075" y="20" />
              <mxPoint x="860" y="20" />
            </Array>
            <mxPoint as="offset" />
            <mxPoint x="1075" y="-140" as="sourcePoint" />
          </mxGeometry>
        </mxCell>
        <mxCell id="AbkL1HbmutMjZFaHs2S1-66" value="&lt;span style=&quot;color: rgb(0, 0, 0); font-family: Helvetica; font-size: 13px; font-style: normal; font-variant-ligatures: normal; font-variant-caps: normal; font-weight: 400; letter-spacing: normal; orphans: 2; text-align: center; text-indent: 0px; text-transform: none; widows: 2; word-spacing: 0px; -webkit-text-stroke-width: 0px; background-color: rgb(255, 255, 255); text-decoration-thickness: initial; text-decoration-style: initial; text-decoration-color: initial; float: none; display: inline !important;&quot;&gt;Alimentation 3V3 ou 5V&lt;/span&gt;" style="edgeStyle=orthogonalEdgeStyle;rounded=0;orthogonalLoop=1;jettySize=auto;html=1;endArrow=halfCircle;endFill=0;strokeWidth=5;fillColor=#f8cecc;strokeColor=#b85450;fontSize=13;exitX=0.5;exitY=1;exitDx=0;exitDy=0;startArrow=classic;startFill=1;" parent="1" source="7CdhdkO9A19Rfal1zVye-2" edge="1">
          <mxGeometry x="1" y="-10" relative="1" as="geometry">
            <mxPoint x="1240.98" y="420" as="targetPoint" />
            <mxPoint x="1249.9799999999998" y="410" as="sourcePoint" />
            <Array as="points">
              <mxPoint x="1240.98" y="380" />
              <mxPoint x="1240.98" y="380" />
              <mxPoint x="1240.98" y="411" />
            </Array>
            <mxPoint x="9" y="10" as="offset" />
          </mxGeometry>
        </mxCell>
        <mxCell id="oSYwLP9_FxzP6isK_3Uv-2" value="Batterie" style="shape=cube;whiteSpace=wrap;html=1;boundedLbl=1;backgroundOutline=1;darkOpacity=0.05;darkOpacity2=0.1;size=10;fontSize=13;" parent="1" vertex="1">
          <mxGeometry x="1005" y="-220" width="130" height="65" as="geometry" />
        </mxCell>
        <mxCell id="oSYwLP9_FxzP6isK_3Uv-5" value="Trame CAN" style="edgeStyle=orthogonalEdgeStyle;rounded=0;orthogonalLoop=1;jettySize=auto;html=1;exitX=0.5;exitY=0;exitDx=0;exitDy=0;entryX=0;entryY=0.5;entryDx=0;entryDy=0;fontSize=13;" parent="1" source="oSYwLP9_FxzP6isK_3Uv-3" target="7CdhdkO9A19Rfal1zVye-20" edge="1">
          <mxGeometry y="10" relative="1" as="geometry">
            <mxPoint as="offset" />
          </mxGeometry>
        </mxCell>
        <mxCell id="oSYwLP9_FxzP6isK_3Uv-3" value="Génération trames CAN" style="rounded=1;whiteSpace=wrap;html=1;fontSize=13;labelBackgroundColor=none;" parent="1" vertex="1">
          <mxGeometry x="-210" y="80" width="80" height="40" as="geometry" />
        </mxCell>
        <mxCell id="S1nSFLTQMd438xBRWyAU-1" value="Régulateur Boost 5V" style="rounded=0;whiteSpace=wrap;html=1;fontSize=13;labelBackgroundColor=none;" vertex="1" parent="1">
          <mxGeometry x="510" y="40" width="80" height="40" as="geometry" />
        </mxCell>
        <mxCell id="S1nSFLTQMd438xBRWyAU-3" style="edgeStyle=orthogonalEdgeStyle;rounded=0;orthogonalLoop=1;jettySize=auto;html=1;exitX=0;exitY=0.5;exitDx=0;exitDy=0;fillColor=#f8cecc;strokeColor=#b85450;strokeWidth=5;fontSize=13;entryX=1;entryY=0.027;entryDx=0;entryDy=0;entryPerimeter=0;" edge="1" parent="1" source="S1nSFLTQMd438xBRWyAU-1" target="7CdhdkO9A19Rfal1zVye-100">
          <mxGeometry relative="1" as="geometry">
            <Array as="points" />
            <mxPoint x="670" y="30" as="sourcePoint" />
            <mxPoint x="600" y="70" as="targetPoint" />
          </mxGeometry>
        </mxCell>
        <mxCell id="S1nSFLTQMd438xBRWyAU-5" value="Text" style="text;html=1;strokeColor=none;fillColor=none;align=center;verticalAlign=middle;whiteSpace=wrap;rounded=0;" vertex="1" parent="1">
          <mxGeometry x="440" y="350" width="60" height="30" as="geometry" />
        </mxCell>
        <mxCell id="S1nSFLTQMd438xBRWyAU-6" value="&#xa;&lt;span style=&quot;color: rgb(0, 0, 0); font-family: Helvetica; font-size: 13px; font-style: normal; font-variant-ligatures: normal; font-variant-caps: normal; font-weight: 400; letter-spacing: normal; orphans: 2; text-align: center; text-indent: 0px; text-transform: none; widows: 2; word-spacing: 0px; -webkit-text-stroke-width: 0px; text-decoration-thickness: initial; text-decoration-style: initial; text-decoration-color: initial; float: none; display: inline !important;&quot;&gt;Etats capteurs Hall et encodeurs&lt;/span&gt;&#xa;&#xa;" style="text;html=1;strokeColor=none;fillColor=none;align=center;verticalAlign=middle;whiteSpace=wrap;rounded=0;labelBackgroundColor=none;" vertex="1" parent="1">
          <mxGeometry x="-60" y="390" width="192" height="30" as="geometry" />
        </mxCell>
      </root>
    </mxGraphModel>
  </diagram>
</mxfile>
